<svg xmlns="http://www.w3.org/2000/svg" width="1600" height="900" viewBox="0 0 1600 900">
  <defs>
    <linearGradient id="sky" x1="0" y1="0" x2="0" y2="1">
      <stop offset="0" stop-color="#182844"/>
      <stop offset="0.55" stop-color="#49311f"/>
      <stop offset="1" stop-color="#101214"/>
    </linearGradient>
    <radialGradient id="fire" cx="50%" cy="68%" r="45%">
      <stop offset="0" stop-color="#f9d76a" stop-opacity="0.95"/>
      <stop offset="0.26" stop-color="#f97316" stop-opacity="0.5"/>
      <stop offset="0.65" stop-color="#14532d" stop-opacity="0.18"/>
      <stop offset="1" stop-color="#000" stop-opacity="0"/>
    </radialGradient>
    <filter id="soft" x="-20%" y="-20%" width="140%" height="140%">
      <feGaussianBlur stdDeviation="8"/>
    </filter>
  </defs>
  <rect width="1600" height="900" fill="url(#sky)"/>
  <circle cx="1301" cy="604" r="1.1" fill="rgba(250, 240, 190, 0.75)" opacity="0.53"/>
<circle cx="497" cy="112" r="2.1" fill="rgba(250, 240, 190, 0.75)" opacity="0.79"/>
<circle cx="534" cy="458" r="2.7" fill="rgba(250, 240, 190, 0.75)" opacity="0.93"/>
<circle cx="478" cy="15" r="1.4" fill="rgba(250, 240, 190, 0.75)" opacity="0.60"/>
<circle cx="996" cy="306" r="1.6" fill="rgba(250, 240, 190, 0.75)" opacity="0.65"/>
<circle cx="1155" cy="334" r="2.0" fill="rgba(250, 240, 190, 0.75)" opacity="0.74"/>
<circle cx="21" cy="359" r="1.0" fill="rgba(250, 240, 190, 0.75)" opacity="0.51"/>
<circle cx="1461" cy="16" r="2.2" fill="rgba(250, 240, 190, 0.75)" opacity="0.81"/>
<circle cx="1342" cy="196" r="1.8" fill="rgba(250, 240, 190, 0.75)" opacity="0.69"/>
<circle cx="330" cy="532" r="3.0" fill="rgba(250, 240, 190, 0.75)" opacity="1.00"/>
<circle cx="693" cy="27" r="2.2" fill="rgba(250, 240, 190, 0.75)" opacity="0.80"/>
<circle cx="1496" cy="203" r="2.7" fill="rgba(250, 240, 190, 0.75)" opacity="0.93"/>
<circle cx="207" cy="62" r="3.2" fill="rgba(250, 240, 190, 0.75)" opacity="1.04"/>
<circle cx="691" cy="497" r="2.1" fill="rgba(250, 240, 190, 0.75)" opacity="0.78"/>
<circle cx="417" cy="511" r="3.0" fill="rgba(250, 240, 190, 0.75)" opacity="1.01"/>
<circle cx="50" cy="366" r="2.0" fill="rgba(250, 240, 190, 0.75)" opacity="0.76"/>
<circle cx="257" cy="325" r="2.6" fill="rgba(250, 240, 190, 0.75)" opacity="0.90"/>
<circle cx="104" cy="19" r="3.3" fill="rgba(250, 240, 190, 0.75)" opacity="1.07"/>
<circle cx="259" cy="342" r="2.7" fill="rgba(250, 240, 190, 0.75)" opacity="0.92"/>
<circle cx="1389" cy="296" r="1.8" fill="rgba(250, 240, 190, 0.75)" opacity="0.70"/>
<circle cx="959" cy="144" r="1.7" fill="rgba(250, 240, 190, 0.75)" opacity="0.67"/>
<circle cx="1236" cy="148" r="3.3" fill="rgba(250, 240, 190, 0.75)" opacity="1.07"/>
<circle cx="1287" cy="570" r="2.8" fill="rgba(250, 240, 190, 0.75)" opacity="0.95"/>
<circle cx="179" cy="413" r="1.2" fill="rgba(250, 240, 190, 0.75)" opacity="0.56"/>
<circle cx="179" cy="570" r="2.0" fill="rgba(250, 240, 190, 0.75)" opacity="0.75"/>
<circle cx="352" cy="43" r="1.3" fill="rgba(250, 240, 190, 0.75)" opacity="0.58"/>
<circle cx="1367" cy="354" r="2.5" fill="rgba(250, 240, 190, 0.75)" opacity="0.88"/>
<circle cx="689" cy="507" r="1.9" fill="rgba(250, 240, 190, 0.75)" opacity="0.72"/>
<circle cx="584" cy="133" r="2.8" fill="rgba(250, 240, 190, 0.75)" opacity="0.94"/>
<circle cx="121" cy="125" r="1.4" fill="rgba(250, 240, 190, 0.75)" opacity="0.60"/>
<circle cx="1565" cy="115" r="1.1" fill="rgba(250, 240, 190, 0.75)" opacity="0.53"/>
<circle cx="783" cy="367" r="3.0" fill="rgba(250, 240, 190, 0.75)" opacity="1.00"/>
<circle cx="42" cy="512" r="3.2" fill="rgba(250, 240, 190, 0.75)" opacity="1.05"/>
<circle cx="8" cy="183" r="2.7" fill="rgba(250, 240, 190, 0.75)" opacity="0.93"/>
<circle cx="1348" cy="273" r="2.6" fill="rgba(250, 240, 190, 0.75)" opacity="0.89"/>
<circle cx="1529" cy="414" r="1.3" fill="rgba(250, 240, 190, 0.75)" opacity="0.59"/>
<circle cx="1218" cy="238" r="2.5" fill="rgba(250, 240, 190, 0.75)" opacity="0.86"/>
<circle cx="1080" cy="9" r="2.1" fill="rgba(250, 240, 190, 0.75)" opacity="0.77"/>
<circle cx="183" cy="618" r="1.2" fill="rgba(250, 240, 190, 0.75)" opacity="0.56"/>
<circle cx="794" cy="438" r="3.3" fill="rgba(250, 240, 190, 0.75)" opacity="1.08"/>
<circle cx="379" cy="361" r="2.2" fill="rgba(250, 240, 190, 0.75)" opacity="0.79"/>
<circle cx="1204" cy="21" r="1.1" fill="rgba(250, 240, 190, 0.75)" opacity="0.53"/>
<circle cx="737" cy="309" r="1.2" fill="rgba(250, 240, 190, 0.75)" opacity="0.54"/>
<circle cx="1244" cy="228" r="3.4" fill="rgba(250, 240, 190, 0.75)" opacity="1.09"/>
<circle cx="192" cy="40" r="1.5" fill="rgba(250, 240, 190, 0.75)" opacity="0.63"/>
<circle cx="1447" cy="9" r="1.4" fill="rgba(250, 240, 190, 0.75)" opacity="0.59"/>
<circle cx="876" cy="396" r="1.5" fill="rgba(250, 240, 190, 0.75)" opacity="0.64"/>
<circle cx="746" cy="205" r="3.1" fill="rgba(250, 240, 190, 0.75)" opacity="1.01"/>
<circle cx="123" cy="326" r="2.1" fill="rgba(250, 240, 190, 0.75)" opacity="0.77"/>
<circle cx="1274" cy="394" r="2.1" fill="rgba(250, 240, 190, 0.75)" opacity="0.77"/>
<circle cx="67" cy="41" r="1.6" fill="rgba(250, 240, 190, 0.75)" opacity="0.64"/>
<circle cx="366" cy="158" r="1.6" fill="rgba(250, 240, 190, 0.75)" opacity="0.65"/>
<circle cx="1240" cy="379" r="3.1" fill="rgba(250, 240, 190, 0.75)" opacity="1.03"/>
<circle cx="154" cy="336" r="2.4" fill="rgba(250, 240, 190, 0.75)" opacity="0.85"/>
<circle cx="976" cy="292" r="2.8" fill="rgba(250, 240, 190, 0.75)" opacity="0.96"/>
<circle cx="1172" cy="508" r="3.0" fill="rgba(250, 240, 190, 0.75)" opacity="0.99"/>
<circle cx="1408" cy="619" r="1.4" fill="rgba(250, 240, 190, 0.75)" opacity="0.60"/>
<circle cx="752" cy="255" r="1.6" fill="rgba(250, 240, 190, 0.75)" opacity="0.65"/>
<circle cx="1470" cy="310" r="2.1" fill="rgba(250, 240, 190, 0.75)" opacity="0.78"/>
<circle cx="1029" cy="415" r="1.6" fill="rgba(250, 240, 190, 0.75)" opacity="0.64"/>
<circle cx="95" cy="205" r="3.3" fill="rgba(250, 240, 190, 0.75)" opacity="1.09"/>
<circle cx="935" cy="570" r="1.2" fill="rgba(250, 240, 190, 0.75)" opacity="0.56"/>
<circle cx="1016" cy="514" r="1.1" fill="rgba(250, 240, 190, 0.75)" opacity="0.52"/>
<circle cx="1005" cy="299" r="1.4" fill="rgba(250, 240, 190, 0.75)" opacity="0.61"/>
<circle cx="1567" cy="187" r="3.3" fill="rgba(250, 240, 190, 0.75)" opacity="1.08"/>
<circle cx="171" cy="442" r="2.9" fill="rgba(250, 240, 190, 0.75)" opacity="0.98"/>
<circle cx="681" cy="65" r="1.3" fill="rgba(250, 240, 190, 0.75)" opacity="0.57"/>
<circle cx="566" cy="579" r="1.7" fill="rgba(250, 240, 190, 0.75)" opacity="0.68"/>
<circle cx="491" cy="357" r="2.9" fill="rgba(250, 240, 190, 0.75)" opacity="0.98"/>
<circle cx="1124" cy="290" r="1.1" fill="rgba(250, 240, 190, 0.75)" opacity="0.51"/>
  <circle cx="1260" cy="150" r="80" fill="#f7e6b2" opacity="0.85"/>
  <circle cx="1228" cy="132" r="80" fill="#182844" opacity="0.72"/>
  <path d="M0 520 C170 420 300 470 440 390 C620 280 750 370 900 300 C1100 210 1260 300 1600 210 L1600 900 L0 900 Z" fill="#15201a"/>
  <path d="M0 610 C210 530 370 580 520 500 C680 415 790 475 940 420 C1140 350 1330 410 1600 330 L1600 900 L0 900 Z" fill="#202318"/>
  <ellipse cx="805" cy="700" rx="500" ry="145" fill="#060708" opacity="0.55"/>
  <rect x="600" y="460" width="430" height="210" rx="24" fill="#49301f"/>
  <path d="M575 480 L815 305 L1055 480 Z" fill="#7f4b24"/>
  <path d="M815 305 L1068 480 L1028 492 L815 355 Z" fill="#b36a2a"/>
  <rect x="655" y="520" width="110" height="150" rx="8" fill="#1a1512"/>
  <rect x="820" y="525" width="150" height="86" rx="12" fill="#192433"/>
  <path d="M828 535 h132 v66 h-132z" fill="#f7d36f" opacity="0.38"/>
  <g opacity="0.95">
    <path d="M270 690 L320 560 L375 690 Z" fill="#103923"/>
    <path d="M335 700 L390 535 L455 700 Z" fill="#13472c"/>
    <path d="M1215 690 L1265 545 L1328 690 Z" fill="#103923"/>
    <path d="M1290 705 L1350 520 L1420 705 Z" fill="#155233"/>
  </g>
  <circle cx="805" cy="675" r="210" fill="url(#fire)"/>
  <g filter="url(#soft)" opacity="0.88">
    <path d="M750 690 C780 618 835 616 860 690 C822 660 790 660 750 690 Z" fill="#facc15"/>
    <path d="M790 695 C815 620 840 650 855 700 C832 672 815 675 790 695 Z" fill="#fb923c"/>
  </g>
  <path d="M95 805 C280 740 420 805 600 760 C820 705 1005 775 1190 735 C1360 700 1490 735 1600 690 L1600 900 L0 900 L0 830 Z" fill="#0b0d0f"/>
  <rect width="1600" height="900" fill="rgba(0,0,0,0.12)"/>
</svg>