<svg xmlns="http://www.w3.org/2000/svg" width="1600" height="900" viewBox="0 0 1600 900">
  <defs>
    <linearGradient id="sky" x1="0" y1="0" x2="0" y2="1">
      <stop offset="0" stop-color="#09162d"/>
      <stop offset="0.45" stop-color="#1c3d70"/>
      <stop offset="1" stop-color="#111827"/>
    </linearGradient>
    <radialGradient id="aura" cx="50%" cy="42%" r="58%">
      <stop offset="0" stop-color="#fef3c7" stop-opacity="0.65"/>
      <stop offset="0.24" stop-color="#60a5fa" stop-opacity="0.28"/>
      <stop offset="0.78" stop-color="#000" stop-opacity="0"/>
    </radialGradient>
    <filter id="cloudBlur"><feGaussianBlur stdDeviation="16"/></filter>
  </defs>
  <rect width="1600" height="900" fill="url(#sky)"/>
  <circle cx="453" cy="184" r="2.7" fill="rgba(219, 234, 254, 0.9)" opacity="0.93"/>
<circle cx="1185" cy="203" r="1.1" fill="rgba(219, 234, 254, 0.9)" opacity="0.52"/>
<circle cx="979" cy="151" r="1.9" fill="rgba(219, 234, 254, 0.9)" opacity="0.72"/>
<circle cx="503" cy="289" r="1.4" fill="rgba(219, 234, 254, 0.9)" opacity="0.59"/>
<circle cx="424" cy="252" r="2.9" fill="rgba(219, 234, 254, 0.9)" opacity="0.98"/>
<circle cx="1407" cy="300" r="2.7" fill="rgba(219, 234, 254, 0.9)" opacity="0.93"/>
<circle cx="921" cy="67" r="1.8" fill="rgba(219, 234, 254, 0.9)" opacity="0.70"/>
<circle cx="1230" cy="445" r="1.1" fill="rgba(219, 234, 254, 0.9)" opacity="0.53"/>
<circle cx="1402" cy="437" r="1.7" fill="rgba(219, 234, 254, 0.9)" opacity="0.68"/>
<circle cx="504" cy="304" r="2.1" fill="rgba(219, 234, 254, 0.9)" opacity="0.79"/>
<circle cx="803" cy="310" r="1.1" fill="rgba(219, 234, 254, 0.9)" opacity="0.52"/>
<circle cx="1364" cy="88" r="1.8" fill="rgba(219, 234, 254, 0.9)" opacity="0.71"/>
<circle cx="1255" cy="528" r="3.1" fill="rgba(219, 234, 254, 0.9)" opacity="1.02"/>
<circle cx="1142" cy="5" r="3.4" fill="rgba(219, 234, 254, 0.9)" opacity="1.09"/>
<circle cx="92" cy="40" r="1.3" fill="rgba(219, 234, 254, 0.9)" opacity="0.58"/>
<circle cx="372" cy="267" r="2.7" fill="rgba(219, 234, 254, 0.9)" opacity="0.93"/>
<circle cx="1048" cy="317" r="1.4" fill="rgba(219, 234, 254, 0.9)" opacity="0.60"/>
<circle cx="1187" cy="453" r="3.1" fill="rgba(219, 234, 254, 0.9)" opacity="1.04"/>
<circle cx="1456" cy="307" r="1.7" fill="rgba(219, 234, 254, 0.9)" opacity="0.69"/>
<circle cx="921" cy="143" r="3.0" fill="rgba(219, 234, 254, 0.9)" opacity="1.00"/>
<circle cx="248" cy="222" r="3.1" fill="rgba(219, 234, 254, 0.9)" opacity="1.03"/>
<circle cx="106" cy="177" r="3.1" fill="rgba(219, 234, 254, 0.9)" opacity="1.03"/>
<circle cx="1160" cy="270" r="1.6" fill="rgba(219, 234, 254, 0.9)" opacity="0.64"/>
<circle cx="877" cy="135" r="1.9" fill="rgba(219, 234, 254, 0.9)" opacity="0.71"/>
<circle cx="1523" cy="33" r="2.6" fill="rgba(219, 234, 254, 0.9)" opacity="0.91"/>
<circle cx="566" cy="227" r="2.4" fill="rgba(219, 234, 254, 0.9)" opacity="0.86"/>
<circle cx="272" cy="350" r="2.3" fill="rgba(219, 234, 254, 0.9)" opacity="0.83"/>
<circle cx="1307" cy="34" r="3.3" fill="rgba(219, 234, 254, 0.9)" opacity="1.07"/>
<circle cx="1138" cy="171" r="1.5" fill="rgba(219, 234, 254, 0.9)" opacity="0.62"/>
<circle cx="433" cy="395" r="2.8" fill="rgba(219, 234, 254, 0.9)" opacity="0.94"/>
<circle cx="1457" cy="337" r="3.3" fill="rgba(219, 234, 254, 0.9)" opacity="1.08"/>
<circle cx="78" cy="260" r="1.7" fill="rgba(219, 234, 254, 0.9)" opacity="0.67"/>
<circle cx="161" cy="426" r="1.4" fill="rgba(219, 234, 254, 0.9)" opacity="0.59"/>
<circle cx="774" cy="469" r="3.3" fill="rgba(219, 234, 254, 0.9)" opacity="1.07"/>
<circle cx="984" cy="20" r="1.2" fill="rgba(219, 234, 254, 0.9)" opacity="0.56"/>
<circle cx="1456" cy="602" r="1.1" fill="rgba(219, 234, 254, 0.9)" opacity="0.52"/>
<circle cx="1258" cy="588" r="1.4" fill="rgba(219, 234, 254, 0.9)" opacity="0.60"/>
<circle cx="1056" cy="240" r="3.1" fill="rgba(219, 234, 254, 0.9)" opacity="1.04"/>
<circle cx="1518" cy="450" r="2.6" fill="rgba(219, 234, 254, 0.9)" opacity="0.89"/>
<circle cx="109" cy="221" r="3.0" fill="rgba(219, 234, 254, 0.9)" opacity="1.01"/>
<circle cx="696" cy="446" r="3.2" fill="rgba(219, 234, 254, 0.9)" opacity="1.05"/>
<circle cx="746" cy="127" r="1.6" fill="rgba(219, 234, 254, 0.9)" opacity="0.65"/>
<circle cx="926" cy="157" r="1.7" fill="rgba(219, 234, 254, 0.9)" opacity="0.66"/>
<circle cx="302" cy="167" r="2.0" fill="rgba(219, 234, 254, 0.9)" opacity="0.75"/>
<circle cx="1141" cy="421" r="1.2" fill="rgba(219, 234, 254, 0.9)" opacity="0.54"/>
<circle cx="909" cy="551" r="2.6" fill="rgba(219, 234, 254, 0.9)" opacity="0.91"/>
<circle cx="274" cy="190" r="2.5" fill="rgba(219, 234, 254, 0.9)" opacity="0.88"/>
<circle cx="1502" cy="230" r="1.9" fill="rgba(219, 234, 254, 0.9)" opacity="0.73"/>
<circle cx="460" cy="303" r="1.7" fill="rgba(219, 234, 254, 0.9)" opacity="0.68"/>
<circle cx="1014" cy="42" r="3.0" fill="rgba(219, 234, 254, 0.9)" opacity="1.01"/>
<circle cx="631" cy="340" r="2.0" fill="rgba(219, 234, 254, 0.9)" opacity="0.75"/>
<circle cx="1577" cy="199" r="2.0" fill="rgba(219, 234, 254, 0.9)" opacity="0.75"/>
<circle cx="1320" cy="511" r="1.7" fill="rgba(219, 234, 254, 0.9)" opacity="0.67"/>
<circle cx="525" cy="280" r="2.0" fill="rgba(219, 234, 254, 0.9)" opacity="0.75"/>
<circle cx="1461" cy="397" r="1.6" fill="rgba(219, 234, 254, 0.9)" opacity="0.65"/>
<circle cx="1592" cy="495" r="1.5" fill="rgba(219, 234, 254, 0.9)" opacity="0.62"/>
<circle cx="1587" cy="206" r="2.6" fill="rgba(219, 234, 254, 0.9)" opacity="0.90"/>
<circle cx="511" cy="424" r="1.2" fill="rgba(219, 234, 254, 0.9)" opacity="0.55"/>
<circle cx="632" cy="150" r="3.0" fill="rgba(219, 234, 254, 0.9)" opacity="1.01"/>
<circle cx="1015" cy="277" r="1.9" fill="rgba(219, 234, 254, 0.9)" opacity="0.73"/>
<circle cx="728" cy="438" r="1.3" fill="rgba(219, 234, 254, 0.9)" opacity="0.57"/>
<circle cx="438" cy="264" r="2.1" fill="rgba(219, 234, 254, 0.9)" opacity="0.78"/>
<circle cx="810" cy="20" r="3.0" fill="rgba(219, 234, 254, 0.9)" opacity="1.00"/>
<circle cx="912" cy="596" r="2.6" fill="rgba(219, 234, 254, 0.9)" opacity="0.89"/>
<circle cx="1410" cy="366" r="1.8" fill="rgba(219, 234, 254, 0.9)" opacity="0.69"/>
<circle cx="1372" cy="222" r="1.6" fill="rgba(219, 234, 254, 0.9)" opacity="0.66"/>
<circle cx="1462" cy="426" r="3.2" fill="rgba(219, 234, 254, 0.9)" opacity="1.04"/>
<circle cx="750" cy="612" r="2.6" fill="rgba(219, 234, 254, 0.9)" opacity="0.89"/>
<circle cx="1500" cy="411" r="3.2" fill="rgba(219, 234, 254, 0.9)" opacity="1.06"/>
<circle cx="1180" cy="86" r="1.3" fill="rgba(219, 234, 254, 0.9)" opacity="0.59"/>
<circle cx="456" cy="530" r="2.7" fill="rgba(219, 234, 254, 0.9)" opacity="0.93"/>
<circle cx="1595" cy="114" r="1.2" fill="rgba(219, 234, 254, 0.9)" opacity="0.54"/>
<circle cx="463" cy="363" r="2.5" fill="rgba(219, 234, 254, 0.9)" opacity="0.86"/>
<circle cx="928" cy="277" r="2.8" fill="rgba(219, 234, 254, 0.9)" opacity="0.95"/>
<circle cx="456" cy="120" r="3.2" fill="rgba(219, 234, 254, 0.9)" opacity="1.06"/>
<circle cx="1314" cy="153" r="2.3" fill="rgba(219, 234, 254, 0.9)" opacity="0.83"/>
<circle cx="968" cy="11" r="1.1" fill="rgba(219, 234, 254, 0.9)" opacity="0.52"/>
<circle cx="84" cy="584" r="2.9" fill="rgba(219, 234, 254, 0.9)" opacity="0.97"/>
<circle cx="931" cy="246" r="1.5" fill="rgba(219, 234, 254, 0.9)" opacity="0.63"/>
<circle cx="974" cy="519" r="2.9" fill="rgba(219, 234, 254, 0.9)" opacity="0.97"/>
<circle cx="879" cy="406" r="3.0" fill="rgba(219, 234, 254, 0.9)" opacity="1.01"/>
<circle cx="1315" cy="168" r="3.1" fill="rgba(219, 234, 254, 0.9)" opacity="1.02"/>
<circle cx="1346" cy="70" r="1.6" fill="rgba(219, 234, 254, 0.9)" opacity="0.65"/>
<circle cx="41" cy="372" r="2.0" fill="rgba(219, 234, 254, 0.9)" opacity="0.75"/>
<circle cx="1265" cy="77" r="2.8" fill="rgba(219, 234, 254, 0.9)" opacity="0.95"/>
<circle cx="886" cy="79" r="2.7" fill="rgba(219, 234, 254, 0.9)" opacity="0.93"/>
<circle cx="1169" cy="9" r="2.7" fill="rgba(219, 234, 254, 0.9)" opacity="0.92"/>
<circle cx="1182" cy="131" r="1.3" fill="rgba(219, 234, 254, 0.9)" opacity="0.57"/>
<circle cx="1592" cy="76" r="2.0" fill="rgba(219, 234, 254, 0.9)" opacity="0.74"/>
<circle cx="1464" cy="107" r="3.3" fill="rgba(219, 234, 254, 0.9)" opacity="1.07"/>
<circle cx="1466" cy="486" r="1.5" fill="rgba(219, 234, 254, 0.9)" opacity="0.62"/>
<circle cx="664" cy="217" r="2.4" fill="rgba(219, 234, 254, 0.9)" opacity="0.84"/>
<circle cx="1325" cy="191" r="2.1" fill="rgba(219, 234, 254, 0.9)" opacity="0.77"/>
<circle cx="916" cy="41" r="1.7" fill="rgba(219, 234, 254, 0.9)" opacity="0.66"/>
<circle cx="104" cy="29" r="2.1" fill="rgba(219, 234, 254, 0.9)" opacity="0.78"/>
  <circle cx="780" cy="320" r="390" fill="url(#aura)"/>
  <g filter="url(#cloudBlur)" opacity="0.62">
    <ellipse cx="285" cy="590" rx="260" ry="75" fill="#dbeafe"/>
    <ellipse cx="585" cy="645" rx="360" ry="88" fill="#bfdbfe"/>
    <ellipse cx="1210" cy="575" rx="320" ry="92" fill="#dbeafe"/>
    <ellipse cx="1040" cy="690" rx="420" ry="100" fill="#93c5fd"/>
  </g>
  <path d="M265 650 C455 590 585 625 740 560 C905 490 1060 555 1240 500 C1390 455 1510 500 1600 455 L1600 900 L0 900 L0 715 C90 715 160 680 265 650 Z" fill="#1e293b" opacity="0.72"/>
  <g opacity="0.96">
    <path d="M430 590 L800 380 L1170 590 Z" fill="#e0f2fe" opacity="0.2"/>
    <path d="M540 610 L800 455 L1060 610 Z" fill="#e5e7eb"/>
    <path d="M800 455 L1060 610 L1012 625 L800 500 Z" fill="#94a3b8"/>
    <rect x="600" y="610" width="400" height="110" rx="28" fill="#dbeafe"/>
    <rect x="670" y="645" width="105" height="75" rx="15" fill="#172554" opacity="0.72"/>
    <rect x="825" y="640" width="135" height="62" rx="18" fill="#1e3a8a" opacity="0.7"/>
    <circle cx="808" cy="585" r="42" fill="#fef3c7" opacity="0.86"/>
  </g>
  <g opacity="0.72">
    <path d="M300 710 C450 655 550 718 710 665 C890 605 1035 690 1200 630 C1350 575 1490 620 1600 580 L1600 900 L0 900 L0 745 C100 755 190 745 300 710 Z" fill="#020617"/>
    <path d="M150 790 C310 760 480 805 640 760 C800 715 960 775 1130 728 C1320 675 1465 720 1600 690 L1600 900 L0 900 L0 810 Z" fill="#0f172a"/>
  </g>
  <rect width="1600" height="900" fill="rgba(255,255,255,0.04)"/>
</svg>